<svg width="64" height="64" viewBox="0 0 64 64" fill="none" xmlns="http://www.w3.org/2000/svg">
  <circle cx="32" cy="32" r="10" fill="#FFD700"/>
  <path d="M44 32H36M28 32H20M32 44V36M32 28V20M40.24 40.24L35.8 35.8M24.2 24.2L28.64 28.64M40.24 23.76L35.8 28.2M24.2 39.8L28.64 35.36" stroke="#FFD700" stroke-width="2" stroke-linecap="round"/>
  <path d="M46 40C46 44.42 42.42 48 38 48H20C15.58 48 12 44.42 12 40C12 35.58 15.58 32 20 32H22C22 27.58 25.58 24 30 24C34.42 24 38 27.58 38 32H38C42.42 32 46 35.58 46 40Z" fill="#B0C4DE"/>
</svg>
